# xmcd CD database file
#
# Track frame offsets:
#	150
#	19283
#	37941
#	57932
#	78324
#	100203
#	121271
#	137928
#	157998
#	179035
#	197703
#	211750
#	218791
#	236455
#	270013
#
# Disc length: 3863 seconds
#
# Revision: 4
# Processed by: cddbd v1.5.2PL0 Copyright (c) Steve Scherf et al.
# Submitted via: CDex 1.70beta2
#
DISCID=c70f150f
DTITLE=Shania Twain - The Woman In Me
DYEAR=1995
DGENRE=Pop
TTITLE0=Home Ain't Where His Heart Is (Anymore)
TTITLE1=Any Man Of Mine
TTITLE2=Whose Bed Have Your Boots Been Under ?
TTITLE3=(If You're Not In It For Love) I'm Outta Here !
TTITLE4=The Woman In Me (Needs The Man In You)
TTITLE5=Is There Life After Love
TTITLE6=If It Don't Take Two
TTITLE7=You Win My Love
TTITLE8=Raining On Our Love
TTITLE9=Leaving Is The Only Way Out
TTITLE10=No One Needs To Know
TTITLE11=God Bless The Child
TTITLE12=You Win My Love (remix)
TTITLE13=Medley
TTITLE14=(If You're Not In It For Love) I'm Outta Here ! (remix)
EXTD=YEAR: 1995
EXTT0=
EXTT1=
EXTT2=
EXTT3=
EXTT4=
EXTT5=
EXTT6=
EXTT7=
EXTT8=
EXTT9=
EXTT10=
EXTT11=
EXTT12=
EXTT13=
EXTT14=
PLAYORDER=
